<svg xmlns="http://www.w3.org/2000/svg" width="240" height="80" fill="none"><path fill="#fff" d="M56.515 1.558c-2.802.53-5.064 3.307-4.535 6.562-7.537-2.606-17.192-2.11-23.944-.842a45.747 45.747 0 0 0-4.062.954c-.339.098-.339.423-.042.484 10.372 2.345 14.368 7.598 22.42 8.892-5.728 7.854-5.487 17.732-4.771 20.094.14.57 2.802 4.062 4.39 5.458.177.149.415.2.627.16.303-.056.573-.296.563-.617-.19-9.136.934-15.094 3.848-16.132 1.863-.66 2.742-.906 3.28-1.08 7.811-2.424 7.194-11.77 7.091-15.147-.148-5.5 2.597-6.99 4.897-7.421L77.652.78c1.014-.19 1.58-.075 1.882-.13l.08-.068C79.57.323 79.21.012 78.428 0h-.099a4.34 4.34 0 0 0-.741.082L65.832 2.294c-1.566.294-2.858.373-3.234.27-.768-.214-3.574-1.473-6.083-1.006Z"/><path fill="#fff" d="M240 77.051h-1.272v-3.153h-1.606l-1.785 3.153h-1.442l1.869-3.197c-.699-.137-1.699-.828-1.699-2.102 0-1.413 1.027-2.18 2.728-2.18H240v7.479Zm-1.272-6.435h-1.978c-.924 0-1.415.4-1.415 1.146.002.776.491 1.145 1.415 1.145h1.978v-2.291Zm-11.239-1.044h-1.262v7.479h1.324l3.701-5.599h.019v5.599h1.277v-7.48h-1.33l-3.689 5.598h-.04v-5.597Zm-7.903 0h-1.267v7.479h1.267v-3.42h3.52v3.42h1.267v-7.48h-1.267v3.014h-3.52v-3.013Zm-9.307 2.275c0-1.795 1.242-2.49 3.105-2.49.602 0 2.789.174 2.789 2.095v4.266c0 .315.165.47.424.47.108 0 .262-.027.402-.053v.918c-.207.054-.397.136-.68.136-1.121 0-1.282-.578-1.339-1.142-.497.525-1.248 1.215-2.727 1.215-1.375 0-2.347-.86-2.347-2.165 0-.885.224-2.205 2.881-2.4 1.979-.159 2.123-.31 2.123-1.089 0-.819-.563-1.203-1.759-1.203-1.444 0-1.63.877-1.706 1.442h-1.166Zm4.631 1.387c-.201.156-.511.265-2.085.466-.627.085-1.625.259-1.625 1.2 0 .817.442 1.317 1.387 1.317 1.181 0 2.323-.75 2.323-1.756v-1.227Zm-12.369-3.662h3.434c1.666 0 2.462.877 2.462 1.915 0 .882-.612 1.42-1.266 1.603.794.188 1.711.695 1.711 1.978 0 1.193-.973 1.983-2.767 1.983h-3.574v-7.48Zm1.279 3.095h1.836c1.099 0 1.515-.314 1.515-1.129 0-.593-.375-.922-1.488-.922h-1.863v2.05Zm0 3.34h2.263c.98 0 1.526-.331 1.526-1.163 0-.807-.624-1.189-1.653-1.189h-2.136v2.352Zm-6.204-6.65c2.409 0 3.492 2.025 3.492 3.945.002 1.924-1.083 3.96-3.492 3.96-2.414 0-3.492-2.036-3.492-3.96 0-1.92 1.078-3.945 3.492-3.945Zm0 6.818c1.812 0 2.193-1.864 2.193-2.873 0-1.003-.381-2.853-2.193-2.853-1.807 0-2.198 1.85-2.198 2.853 0 1.009.391 2.873 2.198 2.873Zm-11.105-6.603h1.183v1.058c.418-.603.967-1.273 2.287-1.273 1.992 0 3.116 1.618 3.116 3.735 0 1.785-.708 4.17-3.278 4.17-1.008 0-1.688-.478-2.041-1.087V80h-1.267V69.572Zm1.267 3.72c0 1.627.649 2.883 2.024 2.883.804 0 2.001-.538 2.001-2.53 0-1.23-.136-3.152-1.954-3.152-1.963 0-2.071 1.823-2.071 2.8Zm-8.16-3.72h-1.272v7.479h1.318l3.699-5.599h.03v5.599h1.266v-7.48h-1.328l-3.691 5.598h-.022v-5.597Zm-2.527 2.517c-.108-1.3-.845-2.732-2.827-2.732-2.481 0-3.602 1.854-3.602 4.161 0 2.158 1.255 3.744 3.359 3.744 2.214 0 2.938-1.671 3.07-2.853h-1.226c-.212 1.145-.943 1.766-1.798 1.766-1.737 0-2.052-1.583-2.052-2.873 0-1.326.497-2.81 2.071-2.809 1.061 0 1.615.594 1.779 1.597h1.226Zm-12.66-2.517h-1.267v7.479h1.267v-3.42h3.518v3.42h1.266v-7.48h-1.266v3.014h-3.518v-3.013Zm-9.312 2.275c0-1.795 1.25-2.49 3.115-2.49.6 0 2.789.174 2.789 2.095v4.266c0 .315.159.47.411.47.117 0 .275-.027.419-.053v.918c-.22.054-.403.136-.695.136-1.123 0-1.277-.578-1.333-1.142-.503.525-1.254 1.215-2.724 1.215-1.38 0-2.352-.86-2.352-2.165 0-.885.229-2.205 2.883-2.4 1.982-.159 2.117-.31 2.117-1.089 0-.819-.554-1.203-1.75-1.203-1.438 0-1.632.877-1.716 1.442h-1.164Zm4.63 1.387c-.197.156-.507.265-2.071.466-.629.085-1.63.259-1.63 1.2 0 .817.442 1.317 1.382 1.317 1.183 0 2.319-.75 2.319-1.756v-1.227Zm-11.232-3.662h-1.267v7.479h1.267v-3.42h3.526v3.42h1.264v-7.48h-1.264v3.014h-3.526v-3.013Zm-8.162 0h-1.275v7.479h1.332l3.691-5.599h.029v5.599h1.269v-7.48h-1.331l-3.687 5.598h-.028v-5.597Zm-7.489-1.723c3.24 0 4.808 1.981 4.808 4.075 0 2.088-1.555 4.07-4.808 4.07v1.057h-1.38v-1.058c-3.251 0-4.799-1.98-4.799-4.07 0-2.093 1.564-4.074 4.799-4.074v-1.06h1.38v1.06Zm-1.38 7.051v-5.964c-1.934 0-3.367.877-3.367 2.988 0 2.105 1.433 2.976 3.367 2.976Zm1.38-5.964V74.9c1.945 0 3.367-.871 3.367-2.976 0-2.11-1.422-2.988-3.367-2.988Zm99.034-15.02c2.403 0 3.492 2.023 3.492 3.95.002 1.918-1.089 3.955-3.492 3.955-2.405 0-3.489-2.037-3.489-3.955 0-1.927 1.084-3.95 3.489-3.95Zm0 6.817c1.809 0 2.203-1.866 2.203-2.867 0-1.01-.394-2.864-2.203-2.864-1.812 0-2.194 1.855-2.194 2.864.001 1 .382 2.867 2.194 2.867Zm-9.053-6.599v7.474h1.272V55.18h3.634v-1.046h-4.906Zm-4.932-.219c2.41 0 3.499 2.024 3.499 3.95 0 1.919-1.089 3.956-3.499 3.956-2.409 0-3.489-2.037-3.489-3.955 0-1.927 1.08-3.95 3.489-3.95Zm0 6.818c1.814 0 2.194-1.866 2.194-2.867 0-1.01-.38-2.864-2.194-2.864-1.809 0-2.191 1.855-2.191 2.864 0 1 .382 2.867 2.191 2.867Zm-9.724-6.599h-1.268v7.474h1.268v-3.424h3.516v3.424h1.283v-7.474h-1.283v3.004h-3.516v-3.004Zm-9.041 0h3.424c1.673 0 2.47.87 2.47 1.905 0 .892-.61 1.424-1.272 1.613.804.179 1.714.69 1.714 1.974 0 1.192-.972 1.982-2.765 1.982h-3.571v-7.474Zm1.274 3.085h1.841c1.094 0 1.507-.307 1.507-1.124 0-.591-.37-.915-1.483-.915h-1.865v2.04Zm0 3.349h2.268c.981 0 1.522-.331 1.522-1.166 0-.806-.631-1.188-1.654-1.188h-2.136v2.354Zm-8.17-6.434h-1.269v7.474h1.329l3.692-5.602h.028v5.602h1.267v-7.474h-1.324l-3.691 5.593h-.032v-5.593Zm-8.608 0v1.046h2.479v6.428h1.274V55.18h2.479v-1.046h-6.232Zm-7.203 2.276c0-1.798 1.239-2.493 3.113-2.493.597 0 2.794.171 2.794 2.091v4.27c0 .314.149.471.412.471.115 0 .269-.032.415-.061v.92c-.216.05-.4.14-.686.14-1.126 0-1.288-.58-1.337-1.14-.499.52-1.26 1.213-2.726 1.213-1.38 0-2.354-.86-2.354-2.166.002-.886.233-2.206 2.88-2.401 1.982-.16 2.128-.31 2.128-1.09 0-.817-.563-1.197-1.756-1.197-1.443 0-1.644.867-1.714 1.443h-1.169Zm4.639 1.377c-.203.157-.511.277-2.09.468-.624.087-1.62.256-1.62 1.202 0 .821.446 1.319 1.385 1.319 1.185 0 2.325-.75 2.325-1.752v-1.237Zm-12.617-3.653h1.184v1.053c.412-.61.965-1.272 2.277-1.272 2 0 3.123 1.613 3.123 3.736 0 1.786-.71 4.17-3.278 4.17-1.014 0-1.678-.484-2.038-1.088v3.829h-1.268V54.134Zm1.268 3.712c0 1.626.643 2.887 2.028 2.887.794 0 1.992-.541 1.992-2.534 0-1.23-.128-3.152-1.964-3.152-1.962 0-2.056 1.82-2.056 2.799Zm-6.204-3.93c2.416 0 3.494 2.023 3.494 3.95 0 1.918-1.078 3.955-3.494 3.955-2.403 0-3.494-2.037-3.494-3.955 0-1.927 1.091-3.95 3.494-3.95Zm0 6.817c1.817 0 2.198-1.866 2.198-2.867 0-1.01-.381-2.864-2.198-2.864-1.807 0-2.192 1.855-2.192 2.864 0 1 .385 2.867 2.192 2.867Zm-10.992-6.599v7.474h1.272V55.18h3.523v6.428h1.267v-7.474h-6.062Zm-8.018 0h1.185v1.053c.41-.61.962-1.272 2.278-1.272 1.996 0 3.119 1.613 3.119 3.736 0 1.786-.715 4.17-3.273 4.17-1.015 0-1.692-.484-2.049-1.088v3.829h-1.26V54.134Zm1.26 3.712c0 1.626.648 2.887 2.028 2.887.801 0 1.998-.541 1.998-2.534 0-1.23-.129-3.152-1.955-3.152-1.963 0-2.071 1.82-2.071 2.799Zm-6.198-3.93c2.41 0 3.493 2.023 3.493 3.95 0 1.918-1.083 3.955-3.493 3.955-2.409 0-3.489-2.037-3.489-3.955 0-1.927 1.08-3.95 3.489-3.95Zm0 6.817c1.817 0 2.197-1.866 2.197-2.867 0-1.01-.38-2.864-2.197-2.864-1.807 0-2.198 1.855-2.198 2.864 0 1 .391 2.867 2.198 2.867Zm-10.965-9.385h-1.389v10.26h1.389V58l1.625-1.537 3.626 5.145h1.812l-4.423-6.124 4.305-4.136h-1.929l-5.016 4.973v-4.973Zm24.879-12.66h-1.268v7.471h1.268v-2.822l1.07-.99 2.441 3.812h1.509l-3.048-4.693 2.873-2.779h-1.606l-3.239 3.249v-3.249Zm-7.791 0h-1.277v7.471h1.277v-3.417h3.513v3.417h1.273v-7.47h-1.273v3.008h-3.513V38.69Zm-9.199 2.273c0-1.797 1.24-2.488 3.105-2.488.6 0 2.792.17 2.792 2.094v4.264c0 .316.156.47.419.47.113 0 .272-.027.414-.06v.918c-.21.063-.401.144-.687.144-1.126 0-1.282-.579-1.342-1.147-.499.528-1.255 1.223-2.719 1.223-1.385 0-2.349-.87-2.349-2.17 0-.89.227-2.203 2.87-2.395 1.992-.16 2.127-.312 2.127-1.095 0-.818-.553-1.2-1.755-1.2-1.433 0-1.635.878-1.706 1.442h-1.169Zm4.63 1.386c-.202.157-.507.266-2.081.462-.624.085-1.623.258-1.623 1.201 0 .822.446 1.317 1.388 1.317 1.18 0 2.316-.747 2.316-1.75v-1.23Zm-6.629-6.443v1.224h-5.89v3.014h3.372c2.249 0 3.105 1.707 3.105 3.137 0 1.655-1.194 2.88-3.067 2.88h-4.799V35.904h7.279Zm-5.89 9.03h3.002c1.148 0 2.033-.383 2.033-1.671 0-1.384-.885-1.896-2.133-1.896h-2.902v3.567Zm-53.935-9.258h-9.269l-18.474 18.78V43.951c-.286.215-.619.355-.943.415a1.892 1.892 0 0 1-.362.031h-.014a2.09 2.09 0 0 1-1.38-.514c-1.625-1.439-3.78-4.195-4.565-5.483 0-.011 0-.017-.014-.018v38.696h7.278v-13.9l5.978-5.927 13.731 19.827h9.081l-17.763-24.89L74.68 35.676Zm24.09 10.288v20.184c6.391-.755 10.682-3.201 10.682-9.946.001-6.747-4.353-9.599-10.683-10.238Zm-7.33 0c-6.33.639-10.674 3.491-10.674 10.238 0 6.745 4.282 9.191 10.673 9.946V45.964Zm7.33 26.47v4.645h-7.33v-4.646c-8.913-.185-18.004-5.417-18.004-16.23 0-10.527 8.442-16.23 18.003-16.524v-4.003h7.33v4.003c9.73.35 18.004 5.997 18.004 16.523 0 10.814-9.03 16.046-18.004 16.231ZM19.411 57.418H7.33v13.727h12.2c4.808 0 7.212-2.263 7.212-6.74 0-4.366-2.751-6.987-7.33-6.987Zm.413 19.66H0V35.676h30.725v6.276H7.33v9.537h12.495c9.148 0 14.248 4.598 14.248 12.736 0 8.208-5.157 12.855-14.248 12.854Z"/></svg>