<svg xmlns="http://www.w3.org/2000/svg" width="200" height="40" fill="none"><path fill="#fff" fill-opacity=".5" fill-rule="evenodd" d="M200 19.936v-.276h-8.979V20c0 7.114-7.287 12.886-16.269 12.886S158.483 27.114 158.483 20c0-7.114 7.287-12.885 16.269-12.885h.268V0h-.268c-13.927 0-25.248 8.967-25.248 20s11.319 20 25.248 20S200 31.033 200 20v-.064ZM83.33.724 67.087 39.276h9.277l1.828-4.323c.268-.619.727-1 1.722-1h14.842c.995 0 1.477.381 1.72 1l1.828 4.323h9.277L91.341.724h-8.012Zm8.47 26.518h-8.957c-.94 0-1.479-.448-1.158-1.215l4.706-11.203c.432-1 1.479-1 1.883 0l4.652 11.203c.35.81-.188 1.215-1.129 1.215h.003Zm43.293-3.302c.779 1.193 1.99.938 1.99-.382V.722h8.952v38.532H135.2L119.737 16.06c-.779-1.193-1.989-.938-1.989.382v22.834h-8.953V.724h11.374l14.924 23.218v-.002Zm-89.14 7.242V.724H37v38.552H65.77v-6.73H47.702c-.23.01-.459-.017-.674-.081a1.748 1.748 0 0 1-.576-.292 1.346 1.346 0 0 1-.38-.454 1.09 1.09 0 0 1-.119-.537Zm-13.902-19.83c0 3.259-1.776 5.922-4.868 7.71 3.683 1.96 5.888 5.284 5.888 9.01 0 6.475-5.835 11.204-13.633 11.204H0V.724h18.472c8.391 0 13.58 4.367 13.58 10.629ZM10.215 7.072c-.779 0-1.263.384-1.263 1v7.327c0 .598.484 1.046 1.263 1.046h6.617c3.335 0 5.702-2.024 5.702-4.688 0-2.618-2.34-4.685-5.702-4.685h-6.617Zm.11 25.773h6.639c3.952 0 6.401-2.195 6.428-5.07 0-2.832-2.476-4.983-6.4-4.983h-6.666c-.808 0-1.372.467-1.372 1.127v7.84c0 .637.591 1.086 1.372 1.086h-.002Z" clip-rule="evenodd"/></svg>