<svg xmlns="http://www.w3.org/2000/svg" width="200" height="40" fill="none"><path fill="#fff" fill-opacity=".5" d="M177.224 20.123c0-5.234-4.201-9.467-10.135-9.467-5.816 0-9.959 4.07-9.959 9.664 0 5.62 4.259 9.72 10.37 9.72 3.878 0 7.138-1.634 9.165-4.958l-4.112-1.8c-.969 1.66-3.085 2.741-5.053 2.741-2.496 0-5.375-1.772-5.552-4.235h15.128c.098-.55.147-1.107.148-1.665Zm-15.189-1.6c.354-2.492 2.174-4.125 5.083-4.125 2.878 0 4.641 1.6 4.876 4.125h-9.959Zm-41.441-7.87c-5.964 0-10.194 4.043-10.194 9.748 0 5.648 4.23 9.636 10.253 9.636 6.051 0 10.281-3.988 10.281-9.553.001-5.733-4.346-9.832-10.34-9.832Zm.06 15.146c-2.997 0-4.847-2.104-4.847-5.371 0-3.323 1.88-5.593 4.847-5.593 2.996 0 4.876 2.242 4.876 5.593 0 3.295-1.851 5.371-4.876 5.371ZM99.359 10.657c-2.442 0-4.284.787-6.124 2.737h-.603c-1.237-1.761-3.254-2.737-5.517-2.737-2.292-.021-4.456.997-5.815 2.737h-.603l-.03-.027v-2.33H75.61v18.591h5.463V20.06c0-3.089 1.38-4.905 3.767-4.905 2.214 0 3.652 1.546 3.652 3.903v10.57h5.49V20.06c0-3.067 1.38-4.905 3.797-4.905 2.184 0 3.593 1.546 3.593 3.93v10.543h5.492V18.462c0-4.85-2.761-7.805-7.505-7.805Zm90.014 12.524h-.39c0-.33-2.383-6.218-3.944-9.866l-.976-2.28h-5.504l7.809 18.656-3.077 7.11h5.467L200 11.04h-5.507l-.899 1.951-3.045 7.102c-.859 1.984-1.21 2.905-1.176 3.088Zm-43.287-12.524c-2.445 0-4.543 1.003-5.952 2.792h-.576l-.057-.027v-2.386h-5.058V29.63h5.462v-9.513c0-3.035 1.556-4.934 4.113-4.934 2.386 0 4.14 1.68 4.14 4.336v10.11h5.462V18.41c.001-4.554-3.161-7.753-7.534-7.753ZM38.506 0C26.703 0 17.22 9 17.22 20c0 11.09 9.577 20 21.285 20 11.707 0 21.293-9 21.293-20S50.214 0 38.507 0Zm0 27.454c-4.354 0-7.932-3.363-7.932-7.454 0-4.09 3.578-7.454 7.932-7.454 4.354 0 7.934 3.363 7.934 7.454-.098 4.09-3.58 7.454-7.934 7.454ZM17.22 5.811V34.9H9.676L0 5.812h17.219Z"/></svg>