<svg xmlns="http://www.w3.org/2000/svg" width="200" height="40" fill="none"><path fill="#fff" fill-opacity=".5" d="M7.719 15.409v23.944c-.323.027-.595.067-.866.069-1.961.005-3.923-.027-5.884.018-.752.018-.973-.209-.967-.923.032-3.632.015-7.263.015-10.896C.02 19.843.032 12.064 0 4.285c-.004-.857.224-1.163 1.155-1.128 1.77.067 3.543.05 5.313.003.704-.018 1.162.204 1.612.713 6.494 7.35 13.007 14.684 19.514 22.022.298.336.604.666 1.136.939V4.367c0-1.188.003-1.19 1.25-1.19 1.738-.002 3.48.023 5.219-.011.67-.013.957.14.955.85-.019 11.562-.017 23.125-.006 34.687 0 .568-.17.83-.803.822-1.804-.021-3.608.031-5.408-.034-.396-.015-.88-.31-1.154-.616-6.77-7.523-13.516-15.064-20.269-22.6-.199-.227-.408-.447-.795-.866Zm113.05 24.113v-3.753c-1.967 2.227-4.384 3.297-7.095 3.83-6.374 1.25-13.165-1.52-16.666-6.784-6.71-10.09-.155-23.123 12.304-24.308 3.94-.374 7.657.512 11.008 2.994V.001c2.243 0 4.354-.009 6.465.022.149.002.36.283.424.472.077.218.029.478.029.722v37.046c0 1.255-.004 1.257-1.289 1.259-1.698.002-3.397 0-5.18 0Zm-19.331-15.35c-.009 4.96 4.14 8.966 9.29 8.971 5.189.006 9.34-3.935 9.372-8.898.032-4.963-4.103-8.99-9.252-9.009-5.256-.018-9.4 3.919-9.41 8.937Zm38.367 4.753c2.493 4.346 9.45 6.925 14.855 2.13.706-.628 1.194-1.476 1.837-2.177.201-.218.628-.462.866-.4 1.914.498 3.809 1.068 6.006 1.7-.849 1.321-1.486 2.646-2.428 3.728-4.509 5.17-10.313 7.182-17.123 5.529-6.835-1.66-11.029-6.108-12.135-12.757-1.509-9.055 4.943-16.91 14.111-18.087 9.503-1.221 16.661 5.106 18.331 12.984.143.677-.005.997-.79 1.199-7.529 1.93-15.044 3.913-22.564 5.88-.302.078-.6.167-.966.271Zm16.072-10.065c-1.351-2.944-5.803-5.706-10.856-3.969-3.91 1.343-7.236 5.714-6.33 8.491 5.72-1.506 11.446-3.01 17.186-4.522Zm37.628 20.662v-3.999c-1.351.974-2.625 2.197-4.151 2.941-5.174 2.52-10.225 1.736-14.914-1.175-5.734-3.557-8.442-9.99-7.102-16.238 1.35-6.29 6.519-11.185 13.23-12.36 8.653-1.517 17.281 3.724 19.058 12.535.22 1.092.343 2.22.351 3.332.034 4.632-.009 9.265.023 13.896.006.832-.254 1.111-1.129 1.084-1.763-.054-3.526-.016-5.366-.016Zm-.69-15.324c.005-4.972-4.124-8.955-9.297-8.962-5.237-.007-9.37 3.959-9.363 8.984.006 4.91 4.153 8.91 9.243 8.923 5.248.013 9.411-3.942 9.417-8.945ZM56.72 8.433c9.07.003 16.465 7.097 16.456 15.787-.008 8.665-7.432 15.732-16.522 15.73-9.09-.001-16.43-7.063-16.418-15.794.014-8.73 7.349-15.727 16.484-15.723Zm.012 6.807c-5.201-.013-9.365 3.915-9.394 8.862-.028 4.98 4.085 9.016 9.213 9.041 5.21.026 9.445-3.951 9.49-8.914.048-4.889-4.188-8.977-9.31-8.99Zm27.66-2.689c2.473-3.519 6.586-4.365 9.208-4.024 0 1.973.019 3.962-.032 5.952-.004.185-.424.452-.695.521-.819.21-1.69.258-2.488.521-3.33 1.1-5.05 3.48-5.6 6.706-.155.92-.199 1.864-.203 2.797-.017 4.419-.003 8.837-.002 13.255v1.157h-7.25c-.019-.341-.05-.66-.05-.979-.003-9.35.009-18.7-.024-28.051-.003-.862.28-1.08 1.126-1.05 1.643.054 3.291.065 4.934-.004.907-.038 1.168.282 1.09 1.092-.063.626-.014 1.26-.014 2.107Z"/></svg>