<svg xmlns="http://www.w3.org/2000/svg" width="1172" height="246" fill="none"><path stroke="#fff" stroke-opacity=".08" stroke-width="16" d="M8 122.775C8 186.412 59.756 238 123.6 238c63.844 0 115.6-51.588 115.6-115.225C239.2 59.588 290.956 8 354.8 8c63.844 0 115.6 51.588 115.6 115.225C470.4 186.412 522.156 238 586 238c63.844 0 115.6-51.588 115.6-115.225C701.6 59.588 753.356 8 817.2 8c63.844 0 115.6 51.588 115.6 115.225C932.8 186.412 984.558 238 1048.4 238c63.84 0 115.6-51.588 115.6-115.225"/></svg>