<svg xmlns="http://www.w3.org/2000/svg" width="1172" height="246" fill="none"><path stroke="url(#a)" stroke-linecap="square" stroke-width="16" d="M1164 123.225C1164 59.588 1112.24 8 1048.4 8c-63.844 0-115.6 51.588-115.6 115.225C932.8 186.412 881.044 238 817.2 238c-63.844 0-115.6-51.588-115.6-115.225C701.6 59.588 649.844 8 586 8c-63.844 0-115.6 51.588-115.6 115.225C470.4 186.412 418.644 238 354.8 238c-63.844 0-115.6-51.588-115.6-115.225C239.2 59.588 187.442 8 123.6 8 59.758 8 8 59.588 8 123.225"/><defs><linearGradient id="a" x1="354.8" x2="1164" y1="123" y2="123" gradientUnits="userSpaceOnUse"><stop stop-color="#D2FF52"/><stop offset="1" stop-color="#fff"/></linearGradient></defs></svg>